<svg xmlns="http://www.w3.org/2000/svg" viewBox="0 0 148 148" role="img" aria-label="QR code for https://github.com/modelstudioai">
  <rect width="100%" height="100%" fill="#fff"/>
  <g fill="#000">
    <rect x="16" y="16" width="4" height="4"/> <rect x="20" y="16" width="4" height="4"/> <rect x="24" y="16" width="4" height="4"/> <rect x="28" y="16" width="4" height="4"/> <rect x="32" y="16" width="4" height="4"/> <rect x="36" y="16" width="4" height="4"/> <rect x="40" y="16" width="4" height="4"/> <rect x="48" y="16" width="4" height="4"/> <rect x="52" y="16" width="4" height="4"/> <rect x="64" y="16" width="4" height="4"/> <rect x="68" y="16" width="4" height="4"/> <rect x="80" y="16" width="4" height="4"/> <rect x="88" y="16" width="4" height="4"/> <rect x="92" y="16" width="4" height="4"/> <rect x="104" y="16" width="4" height="4"/> <rect x="108" y="16" width="4" height="4"/> <rect x="112" y="16" width="4" height="4"/> <rect x="116" y="16" width="4" height="4"/> <rect x="120" y="16" width="4" height="4"/> <rect x="124" y="16" width="4" height="4"/> <rect x="128" y="16" width="4" height="4"/> <rect x="16" y="20" width="4" height="4"/> <rect x="40" y="20" width="4" height="4"/> <rect x="48" y="20" width="4" height="4"/> <rect x="56" y="20" width="4" height="4"/> <rect x="60" y="20" width="4" height="4"/> <rect x="64" y="20" width="4" height="4"/> <rect x="72" y="20" width="4" height="4"/> <rect x="76" y="20" width="4" height="4"/> <rect x="80" y="20" width="4" height="4"/> <rect x="84" y="20" width="4" height="4"/> <rect x="88" y="20" width="4" height="4"/> <rect x="92" y="20" width="4" height="4"/> <rect x="104" y="20" width="4" height="4"/> <rect x="128" y="20" width="4" height="4"/> <rect x="16" y="24" width="4" height="4"/> <rect x="24" y="24" width="4" height="4"/> <rect x="28" y="24" width="4" height="4"/> <rect x="32" y="24" width="4" height="4"/> <rect x="40" y="24" width="4" height="4"/> <rect x="48" y="24" width="4" height="4"/> <rect x="52" y="24" width="4" height="4"/> <rect x="56" y="24" width="4" height="4"/> <rect x="64" y="24" width="4" height="4"/> <rect x="68" y="24" width="4" height="4"/> <rect x="72" y="24" width="4" height="4"/> <rect x="80" y="24" width="4" height="4"/> <rect x="104" y="24" width="4" height="4"/> <rect x="112" y="24" width="4" height="4"/> <rect x="116" y="24" width="4" height="4"/> <rect x="120" y="24" width="4" height="4"/> <rect x="128" y="24" width="4" height="4"/> <rect x="16" y="28" width="4" height="4"/> <rect x="24" y="28" width="4" height="4"/> <rect x="28" y="28" width="4" height="4"/> <rect x="32" y="28" width="4" height="4"/> <rect x="40" y="28" width="4" height="4"/> <rect x="52" y="28" width="4" height="4"/> <rect x="56" y="28" width="4" height="4"/> <rect x="60" y="28" width="4" height="4"/> <rect x="68" y="28" width="4" height="4"/> <rect x="72" y="28" width="4" height="4"/> <rect x="76" y="28" width="4" height="4"/> <rect x="88" y="28" width="4" height="4"/> <rect x="92" y="28" width="4" height="4"/> <rect x="104" y="28" width="4" height="4"/> <rect x="112" y="28" width="4" height="4"/> <rect x="116" y="28" width="4" height="4"/> <rect x="120" y="28" width="4" height="4"/> <rect x="128" y="28" width="4" height="4"/> <rect x="16" y="32" width="4" height="4"/> <rect x="24" y="32" width="4" height="4"/> <rect x="28" y="32" width="4" height="4"/> <rect x="32" y="32" width="4" height="4"/> <rect x="40" y="32" width="4" height="4"/> <rect x="48" y="32" width="4" height="4"/> <rect x="56" y="32" width="4" height="4"/> <rect x="72" y="32" width="4" height="4"/> <rect x="84" y="32" width="4" height="4"/> <rect x="88" y="32" width="4" height="4"/> <rect x="92" y="32" width="4" height="4"/> <rect x="104" y="32" width="4" height="4"/> <rect x="112" y="32" width="4" height="4"/> <rect x="116" y="32" width="4" height="4"/> <rect x="120" y="32" width="4" height="4"/> <rect x="128" y="32" width="4" height="4"/> <rect x="16" y="36" width="4" height="4"/> <rect x="40" y="36" width="4" height="4"/> <rect x="48" y="36" width="4" height="4"/> <rect x="52" y="36" width="4" height="4"/> <rect x="68" y="36" width="4" height="4"/> <rect x="84" y="36" width="4" height="4"/> <rect x="88" y="36" width="4" height="4"/> <rect x="92" y="36" width="4" height="4"/> <rect x="96" y="36" width="4" height="4"/> <rect x="104" y="36" width="4" height="4"/> <rect x="128" y="36" width="4" height="4"/> <rect x="16" y="40" width="4" height="4"/> <rect x="20" y="40" width="4" height="4"/> <rect x="24" y="40" width="4" height="4"/> <rect x="28" y="40" width="4" height="4"/> <rect x="32" y="40" width="4" height="4"/> <rect x="36" y="40" width="4" height="4"/> <rect x="40" y="40" width="4" height="4"/> <rect x="48" y="40" width="4" height="4"/> <rect x="56" y="40" width="4" height="4"/> <rect x="64" y="40" width="4" height="4"/> <rect x="72" y="40" width="4" height="4"/> <rect x="80" y="40" width="4" height="4"/> <rect x="88" y="40" width="4" height="4"/> <rect x="96" y="40" width="4" height="4"/> <rect x="104" y="40" width="4" height="4"/> <rect x="108" y="40" width="4" height="4"/> <rect x="112" y="40" width="4" height="4"/> <rect x="116" y="40" width="4" height="4"/> <rect x="120" y="40" width="4" height="4"/> <rect x="124" y="40" width="4" height="4"/> <rect x="128" y="40" width="4" height="4"/> <rect x="48" y="44" width="4" height="4"/> <rect x="52" y="44" width="4" height="4"/> <rect x="56" y="44" width="4" height="4"/> <rect x="64" y="44" width="4" height="4"/> <rect x="68" y="44" width="4" height="4"/> <rect x="72" y="44" width="4" height="4"/> <rect x="80" y="44" width="4" height="4"/> <rect x="84" y="44" width="4" height="4"/> <rect x="96" y="44" width="4" height="4"/> <rect x="24" y="48" width="4" height="4"/> <rect x="40" y="48" width="4" height="4"/> <rect x="44" y="48" width="4" height="4"/> <rect x="48" y="48" width="4" height="4"/> <rect x="56" y="48" width="4" height="4"/> <rect x="60" y="48" width="4" height="4"/> <rect x="72" y="48" width="4" height="4"/> <rect x="76" y="48" width="4" height="4"/> <rect x="84" y="48" width="4" height="4"/> <rect x="92" y="48" width="4" height="4"/> <rect x="96" y="48" width="4" height="4"/> <rect x="100" y="48" width="4" height="4"/> <rect x="104" y="48" width="4" height="4"/> <rect x="108" y="48" width="4" height="4"/> <rect x="112" y="48" width="4" height="4"/> <rect x="120" y="48" width="4" height="4"/> <rect x="124" y="48" width="4" height="4"/> <rect x="128" y="48" width="4" height="4"/> <rect x="16" y="52" width="4" height="4"/> <rect x="24" y="52" width="4" height="4"/> <rect x="32" y="52" width="4" height="4"/> <rect x="44" y="52" width="4" height="4"/> <rect x="48" y="52" width="4" height="4"/> <rect x="56" y="52" width="4" height="4"/> <rect x="60" y="52" width="4" height="4"/> <rect x="72" y="52" width="4" height="4"/> <rect x="76" y="52" width="4" height="4"/> <rect x="84" y="52" width="4" height="4"/> <rect x="88" y="52" width="4" height="4"/> <rect x="96" y="52" width="4" height="4"/> <rect x="104" y="52" width="4" height="4"/> <rect x="116" y="52" width="4" height="4"/> <rect x="128" y="52" width="4" height="4"/> <rect x="20" y="56" width="4" height="4"/> <rect x="24" y="56" width="4" height="4"/> <rect x="36" y="56" width="4" height="4"/> <rect x="40" y="56" width="4" height="4"/> <rect x="52" y="56" width="4" height="4"/> <rect x="68" y="56" width="4" height="4"/> <rect x="84" y="56" width="4" height="4"/> <rect x="88" y="56" width="4" height="4"/> <rect x="100" y="56" width="4" height="4"/> <rect x="104" y="56" width="4" height="4"/> <rect x="112" y="56" width="4" height="4"/> <rect x="120" y="56" width="4" height="4"/> <rect x="124" y="56" width="4" height="4"/> <rect x="128" y="56" width="4" height="4"/> <rect x="16" y="60" width="4" height="4"/> <rect x="36" y="60" width="4" height="4"/> <rect x="60" y="60" width="4" height="4"/> <rect x="76" y="60" width="4" height="4"/> <rect x="84" y="60" width="4" height="4"/> <rect x="88" y="60" width="4" height="4"/> <rect x="92" y="60" width="4" height="4"/> <rect x="96" y="60" width="4" height="4"/> <rect x="108" y="60" width="4" height="4"/> <rect x="112" y="60" width="4" height="4"/> <rect x="124" y="60" width="4" height="4"/> <rect x="16" y="64" width="4" height="4"/> <rect x="24" y="64" width="4" height="4"/> <rect x="28" y="64" width="4" height="4"/> <rect x="32" y="64" width="4" height="4"/> <rect x="36" y="64" width="4" height="4"/> <rect x="40" y="64" width="4" height="4"/> <rect x="44" y="64" width="4" height="4"/> <rect x="48" y="64" width="4" height="4"/> <rect x="64" y="64" width="4" height="4"/> <rect x="80" y="64" width="4" height="4"/> <rect x="84" y="64" width="4" height="4"/> <rect x="92" y="64" width="4" height="4"/> <rect x="96" y="64" width="4" height="4"/> <rect x="100" y="64" width="4" height="4"/> <rect x="104" y="64" width="4" height="4"/> <rect x="116" y="64" width="4" height="4"/> <rect x="124" y="64" width="4" height="4"/> <rect x="128" y="64" width="4" height="4"/> <rect x="20" y="68" width="4" height="4"/> <rect x="28" y="68" width="4" height="4"/> <rect x="48" y="68" width="4" height="4"/> <rect x="60" y="68" width="4" height="4"/> <rect x="64" y="68" width="4" height="4"/> <rect x="68" y="68" width="4" height="4"/> <rect x="76" y="68" width="4" height="4"/> <rect x="80" y="68" width="4" height="4"/> <rect x="84" y="68" width="4" height="4"/> <rect x="88" y="68" width="4" height="4"/> <rect x="96" y="68" width="4" height="4"/> <rect x="100" y="68" width="4" height="4"/> <rect x="104" y="68" width="4" height="4"/> <rect x="116" y="68" width="4" height="4"/> <rect x="128" y="68" width="4" height="4"/> <rect x="20" y="72" width="4" height="4"/> <rect x="36" y="72" width="4" height="4"/> <rect x="40" y="72" width="4" height="4"/> <rect x="52" y="72" width="4" height="4"/> <rect x="56" y="72" width="4" height="4"/> <rect x="60" y="72" width="4" height="4"/> <rect x="64" y="72" width="4" height="4"/> <rect x="72" y="72" width="4" height="4"/> <rect x="76" y="72" width="4" height="4"/> <rect x="80" y="72" width="4" height="4"/> <rect x="104" y="72" width="4" height="4"/> <rect x="112" y="72" width="4" height="4"/> <rect x="116" y="72" width="4" height="4"/> <rect x="124" y="72" width="4" height="4"/> <rect x="128" y="72" width="4" height="4"/> <rect x="20" y="76" width="4" height="4"/> <rect x="24" y="76" width="4" height="4"/> <rect x="28" y="76" width="4" height="4"/> <rect x="36" y="76" width="4" height="4"/> <rect x="64" y="76" width="4" height="4"/> <rect x="68" y="76" width="4" height="4"/> <rect x="72" y="76" width="4" height="4"/> <rect x="80" y="76" width="4" height="4"/> <rect x="84" y="76" width="4" height="4"/> <rect x="96" y="76" width="4" height="4"/> <rect x="100" y="76" width="4" height="4"/> <rect x="104" y="76" width="4" height="4"/> <rect x="116" y="76" width="4" height="4"/> <rect x="124" y="76" width="4" height="4"/> <rect x="16" y="80" width="4" height="4"/> <rect x="28" y="80" width="4" height="4"/> <rect x="36" y="80" width="4" height="4"/> <rect x="40" y="80" width="4" height="4"/> <rect x="44" y="80" width="4" height="4"/> <rect x="48" y="80" width="4" height="4"/> <rect x="60" y="80" width="4" height="4"/> <rect x="72" y="80" width="4" height="4"/> <rect x="76" y="80" width="4" height="4"/> <rect x="80" y="80" width="4" height="4"/> <rect x="84" y="80" width="4" height="4"/> <rect x="92" y="80" width="4" height="4"/> <rect x="96" y="80" width="4" height="4"/> <rect x="104" y="80" width="4" height="4"/> <rect x="108" y="80" width="4" height="4"/> <rect x="116" y="80" width="4" height="4"/> <rect x="124" y="80" width="4" height="4"/> <rect x="128" y="80" width="4" height="4"/> <rect x="20" y="84" width="4" height="4"/> <rect x="24" y="84" width="4" height="4"/> <rect x="28" y="84" width="4" height="4"/> <rect x="48" y="84" width="4" height="4"/> <rect x="56" y="84" width="4" height="4"/> <rect x="60" y="84" width="4" height="4"/> <rect x="72" y="84" width="4" height="4"/> <rect x="76" y="84" width="4" height="4"/> <rect x="84" y="84" width="4" height="4"/> <rect x="88" y="84" width="4" height="4"/> <rect x="100" y="84" width="4" height="4"/> <rect x="104" y="84" width="4" height="4"/> <rect x="116" y="84" width="4" height="4"/> <rect x="120" y="84" width="4" height="4"/> <rect x="128" y="84" width="4" height="4"/> <rect x="16" y="88" width="4" height="4"/> <rect x="24" y="88" width="4" height="4"/> <rect x="28" y="88" width="4" height="4"/> <rect x="36" y="88" width="4" height="4"/> <rect x="40" y="88" width="4" height="4"/> <rect x="44" y="88" width="4" height="4"/> <rect x="48" y="88" width="4" height="4"/> <rect x="52" y="88" width="4" height="4"/> <rect x="68" y="88" width="4" height="4"/> <rect x="100" y="88" width="4" height="4"/> <rect x="108" y="88" width="4" height="4"/> <rect x="112" y="88" width="4" height="4"/> <rect x="124" y="88" width="4" height="4"/> <rect x="128" y="88" width="4" height="4"/> <rect x="20" y="92" width="4" height="4"/> <rect x="24" y="92" width="4" height="4"/> <rect x="32" y="92" width="4" height="4"/> <rect x="36" y="92" width="4" height="4"/> <rect x="44" y="92" width="4" height="4"/> <rect x="48" y="92" width="4" height="4"/> <rect x="56" y="92" width="4" height="4"/> <rect x="60" y="92" width="4" height="4"/> <rect x="76" y="92" width="4" height="4"/> <rect x="84" y="92" width="4" height="4"/> <rect x="88" y="92" width="4" height="4"/> <rect x="92" y="92" width="4" height="4"/> <rect x="96" y="92" width="4" height="4"/> <rect x="100" y="92" width="4" height="4"/> <rect x="104" y="92" width="4" height="4"/> <rect x="108" y="92" width="4" height="4"/> <rect x="112" y="92" width="4" height="4"/> <rect x="116" y="92" width="4" height="4"/> <rect x="124" y="92" width="4" height="4"/> <rect x="16" y="96" width="4" height="4"/> <rect x="24" y="96" width="4" height="4"/> <rect x="32" y="96" width="4" height="4"/> <rect x="36" y="96" width="4" height="4"/> <rect x="40" y="96" width="4" height="4"/> <rect x="56" y="96" width="4" height="4"/> <rect x="64" y="96" width="4" height="4"/> <rect x="76" y="96" width="4" height="4"/> <rect x="80" y="96" width="4" height="4"/> <rect x="84" y="96" width="4" height="4"/> <rect x="92" y="96" width="4" height="4"/> <rect x="96" y="96" width="4" height="4"/> <rect x="100" y="96" width="4" height="4"/> <rect x="104" y="96" width="4" height="4"/> <rect x="108" y="96" width="4" height="4"/> <rect x="112" y="96" width="4" height="4"/> <rect x="48" y="100" width="4" height="4"/> <rect x="56" y="100" width="4" height="4"/> <rect x="60" y="100" width="4" height="4"/> <rect x="64" y="100" width="4" height="4"/> <rect x="68" y="100" width="4" height="4"/> <rect x="80" y="100" width="4" height="4"/> <rect x="84" y="100" width="4" height="4"/> <rect x="92" y="100" width="4" height="4"/> <rect x="96" y="100" width="4" height="4"/> <rect x="112" y="100" width="4" height="4"/> <rect x="120" y="100" width="4" height="4"/> <rect x="124" y="100" width="4" height="4"/> <rect x="128" y="100" width="4" height="4"/> <rect x="16" y="104" width="4" height="4"/> <rect x="20" y="104" width="4" height="4"/> <rect x="24" y="104" width="4" height="4"/> <rect x="28" y="104" width="4" height="4"/> <rect x="32" y="104" width="4" height="4"/> <rect x="36" y="104" width="4" height="4"/> <rect x="40" y="104" width="4" height="4"/> <rect x="48" y="104" width="4" height="4"/> <rect x="52" y="104" width="4" height="4"/> <rect x="56" y="104" width="4" height="4"/> <rect x="60" y="104" width="4" height="4"/> <rect x="64" y="104" width="4" height="4"/> <rect x="72" y="104" width="4" height="4"/> <rect x="92" y="104" width="4" height="4"/> <rect x="96" y="104" width="4" height="4"/> <rect x="104" y="104" width="4" height="4"/> <rect x="112" y="104" width="4" height="4"/> <rect x="116" y="104" width="4" height="4"/> <rect x="124" y="104" width="4" height="4"/> <rect x="128" y="104" width="4" height="4"/> <rect x="16" y="108" width="4" height="4"/> <rect x="40" y="108" width="4" height="4"/> <rect x="52" y="108" width="4" height="4"/> <rect x="56" y="108" width="4" height="4"/> <rect x="64" y="108" width="4" height="4"/> <rect x="68" y="108" width="4" height="4"/> <rect x="72" y="108" width="4" height="4"/> <rect x="76" y="108" width="4" height="4"/> <rect x="84" y="108" width="4" height="4"/> <rect x="96" y="108" width="4" height="4"/> <rect x="112" y="108" width="4" height="4"/> <rect x="116" y="108" width="4" height="4"/> <rect x="124" y="108" width="4" height="4"/> <rect x="16" y="112" width="4" height="4"/> <rect x="24" y="112" width="4" height="4"/> <rect x="28" y="112" width="4" height="4"/> <rect x="32" y="112" width="4" height="4"/> <rect x="40" y="112" width="4" height="4"/> <rect x="52" y="112" width="4" height="4"/> <rect x="60" y="112" width="4" height="4"/> <rect x="72" y="112" width="4" height="4"/> <rect x="80" y="112" width="4" height="4"/> <rect x="84" y="112" width="4" height="4"/> <rect x="96" y="112" width="4" height="4"/> <rect x="100" y="112" width="4" height="4"/> <rect x="104" y="112" width="4" height="4"/> <rect x="108" y="112" width="4" height="4"/> <rect x="112" y="112" width="4" height="4"/> <rect x="128" y="112" width="4" height="4"/> <rect x="16" y="116" width="4" height="4"/> <rect x="24" y="116" width="4" height="4"/> <rect x="28" y="116" width="4" height="4"/> <rect x="32" y="116" width="4" height="4"/> <rect x="40" y="116" width="4" height="4"/> <rect x="56" y="116" width="4" height="4"/> <rect x="60" y="116" width="4" height="4"/> <rect x="72" y="116" width="4" height="4"/> <rect x="80" y="116" width="4" height="4"/> <rect x="96" y="116" width="4" height="4"/> <rect x="108" y="116" width="4" height="4"/> <rect x="112" y="116" width="4" height="4"/> <rect x="120" y="116" width="4" height="4"/> <rect x="124" y="116" width="4" height="4"/> <rect x="128" y="116" width="4" height="4"/> <rect x="16" y="120" width="4" height="4"/> <rect x="24" y="120" width="4" height="4"/> <rect x="28" y="120" width="4" height="4"/> <rect x="32" y="120" width="4" height="4"/> <rect x="40" y="120" width="4" height="4"/> <rect x="48" y="120" width="4" height="4"/> <rect x="68" y="120" width="4" height="4"/> <rect x="88" y="120" width="4" height="4"/> <rect x="92" y="120" width="4" height="4"/> <rect x="108" y="120" width="4" height="4"/> <rect x="112" y="120" width="4" height="4"/> <rect x="116" y="120" width="4" height="4"/> <rect x="128" y="120" width="4" height="4"/> <rect x="16" y="124" width="4" height="4"/> <rect x="40" y="124" width="4" height="4"/> <rect x="56" y="124" width="4" height="4"/> <rect x="60" y="124" width="4" height="4"/> <rect x="80" y="124" width="4" height="4"/> <rect x="84" y="124" width="4" height="4"/> <rect x="88" y="124" width="4" height="4"/> <rect x="92" y="124" width="4" height="4"/> <rect x="96" y="124" width="4" height="4"/> <rect x="100" y="124" width="4" height="4"/> <rect x="112" y="124" width="4" height="4"/> <rect x="124" y="124" width="4" height="4"/> <rect x="16" y="128" width="4" height="4"/> <rect x="20" y="128" width="4" height="4"/> <rect x="24" y="128" width="4" height="4"/> <rect x="28" y="128" width="4" height="4"/> <rect x="32" y="128" width="4" height="4"/> <rect x="36" y="128" width="4" height="4"/> <rect x="40" y="128" width="4" height="4"/> <rect x="52" y="128" width="4" height="4"/> <rect x="64" y="128" width="4" height="4"/> <rect x="76" y="128" width="4" height="4"/> <rect x="80" y="128" width="4" height="4"/> <rect x="84" y="128" width="4" height="4"/> <rect x="92" y="128" width="4" height="4"/> <rect x="96" y="128" width="4" height="4"/> <rect x="100" y="128" width="4" height="4"/> <rect x="108" y="128" width="4" height="4"/> <rect x="112" y="128" width="4" height="4"/> <rect x="124" y="128" width="4" height="4"/> <rect x="128" y="128" width="4" height="4"/>
  </g>
</svg>
